<svg xmlns="http://www.w3.org/2000/svg" viewBox="7 80 1010 816" role="img" aria-label="VUNLEK" xmlns:c2pa="http://c2pa.org/manifest"><metadata><c2pa:manifest>AAAWgmp1bWIAAAAeanVtZGMycGEAEQAQgAAAqgA4m3EDYzJwYQAAABZcanVtYgAAAEdqdW1kYzJtYQARABCAAACqADibcQN1cm46YzJwYTo5MjI3YzYzOS02MDU4LTQ1N2YtYjk3MC0wYzUxNmUxYmJiODUAAAADl2p1bWIAAAApanVtZGMyYXMAEQAQgAAAqgA4m3EDYzJwYS5hc3NlcnRpb25zAAAAALxqdW1iAAAARGp1bWRjYm9yABEAEIAAAKoAOJtxE2MycGEuaW5ncmVkaWVudC52MwAAAAAYYzJzaMnd7xsKSMIX0XFxYY/7bWsAAABwY2JvcqNpZGM6Zm9ybWF0bWltYWdlL3N2Zyt4bWxqaW5zdGFuY2VJRHgseG1wOmlpZDo1MWQ0NTQ0ZC0xZmJhLTQ0ZmItOTY3Zi1lZWIxODhiOTYxNDBscmVsYXRpb25zaGlwaHBhcmVudE9mAAAB4mp1bWIAAABBanVtZGNib3IAEQAQgAAAqgA4m3ETYzJwYS5hY3Rpb25zLnYyAAAAABhjMnNo1saF+0+6zjyxxZtW2/UdMwAAAZljYm9yomdhY3Rpb25zgqJmYWN0aW9ua2MycGEub3BlbmVkanBhcmFtZXRlcnOha2luZ3JlZGllbnRzgaJjdXJseC1zZWxmI2p1bWJmPWMycGEuYXNzZXJ0aW9ucy9jMnBhLmluZ3JlZGllbnQudjNkaGFzaFggToSboSLPZKbm/wnNV00r546kinTIolSnEHlSRSVVoZ+kZmFjdGlvbngdY29tLmFudGhyb3BpYy5jbGF1ZGUucHJvdmlkZWRqcGFyYW1ldGVyc6F4H2NvbS5hbnRocm9waWMub3JpZ2luLWNvbmZpZGVuY2VndW5rbm93bmtkZXNjcmlwdGlvbnhmQ2xhdWRlIHByb3ZpZGVkIHRoaXMgZmlsZSBhdCB0aGUgcmVxdWVzdCBvZiBhIHVzZXIgYW5kIG1heSBoYXZlIGNyZWF0ZWQgb3IgbW9kaWZpZWQgdGhlIGZpbGUgY29udGVudHMubXNvZnR3YXJlQWdlbnShZG5hbWVmQ2xhdWRlcmFsbEFjdGlvbnNJbmNsdWRlZPUAAADIanVtYgAAAEBqdW1kY2JvcgARABCAAACqADibcRNjMnBhLmhhc2guZGF0YQAAAAAYYzJzaF6wAQwSOY1/v8KzdVKNyuIAAACAY2JvcqVjYWxnZnNoYTI1NmNwYWRNAAAAAAAAAAAAAAAAAGRoYXNoWCAL0NJ/ji4nmJ8TXUh2p6B7UXANC/ft0lIE68GBSnHzIGRuYW1lbmp1bWJmIG1hbmlmZXN0amV4Y2x1c2lvbnOBomVzdGFydBieZmxlbmd0aBkeBAAAAj5qdW1iAAAAJ2p1bWRjMmNsABEAEIAAAKoAOJtxA2MycGEuY2xhaW0udjIAAAACD2Nib3KlY2FsZ2ZzaGEyNTZpc2lnbmF0dXJleE1zZWxmI2p1bWJmPS9jMnBhL3VybjpjMnBhOjkyMjdjNjM5LTYwNTgtNDU3Zi1iOTcwLTBjNTE2ZTFiYmI4NS9jMnBhLnNpZ25hdHVyZWppbnN0YW5jZUlEeCx4bXA6aWlkOmJkOTFlM2MyLTAzMTYtNGZjNC1hYmZlLWE1YWY0ZWUwYWFjMHJjcmVhdGVkX2Fzc2VydGlvbnODomN1cmx4LXNlbGYjanVtYmY9YzJwYS5hc3NlcnRpb25zL2MycGEuaW5ncmVkaWVudC52M2RoYXNoWCBOhJuhIs9kpub/Cc1XTSvnjqSKdMiiVKcQeVJFJVWhn6JjdXJseCpzZWxmI2p1bWJmPWMycGEuYXNzZXJ0aW9ucy9jMnBhLmFjdGlvbnMudjJkaGFzaFggfuObwYOXBjZkwBunf6YfHiWoOYKw97USXlDeHuwhtLmiY3VybHgpc2VsZiNqdW1iZj1jMnBhLmFzc2VydGlvbnMvYzJwYS5oYXNoLmRhdGFkaGFzaFgguaGHVxP2F8dRqFreNCWoAdknaghca0dzrGLV8LdudQx0Y2xhaW1fZ2VuZXJhdG9yX2luZm+jZG5hbWVvQW50aHJvcGljIEZpbGVzZ3ZlcnNpb25lMS4wLjBrc3BlY1ZlcnNpb25lMi40LjAAABA4anVtYgAAAChqdW1kYzJjcwARABCAAACqADibcQNjMnBhLnNpZ25hdHVyZQAAABAIY2JvctKEWQISogEmGCFZAgowggIGMIIBjaADAgECAhRA5aAK7sI50L64g/oGQgU9Z1UTADAKBggqhkjOPQQDAzBJMRcwFQYDVQQKEw5BbnRocm9waWMsIFBCQzEuMCwGA1UEAxMlQW50aHJvcGljIENvbnRlbnQgQ3JlZGVudGlhbHMgUm9vdCBDQTAeFw0yNjA4MDcxODQzNTZaFw0yODA4MDYxOTQzNTZaMEQxFzAVBgNVBAoTDkFudGhyb3BpYywgUEJDMSkwJwYDVQQDEyBBbnRocm9waWMgQ2xhdWRlIENvbnRlbnQgU2lnbmluZzBZMBMGByqGSM49AgEGCCqGSM49AwEHA0IABJh6CmvLUBgFFNU0vUKlOVtE6djd17L5SuwX0LemFisBM3dkd/3cyjxFA3Qo5S46fX0/ihY0VZ7mfb9KF703t5OjWDBWMA4GA1UdDwEB/wQEAwIHgDAVBgNVHSUEDjAMBgorBgEEAYPoXgIBMAwGA1UdEwEB/wQCMAAwHwYDVR0jBBgwFoAUzlHiBIFOZFsj+OPEz5o+nMHXXMIwCgYIKoZIzj0EAwMDZwAwZAIwMXMdFJ4BetLLVY7ORuE9noqbbAZOZn/aArXyTwFAZfKrPzxF2vPoJNf1+UCdg1XGAjBwX1zd9WGqYkqmL5SFqw1QySjr1zJfpJM9+1rdDwSPLMOPOjKuiXjoU/pUUeG9RwmhY3BhZFkNngAAAAAAAAAAAAAAAAAAAAAAAAAAAAAAAAAAAAAAAAAAAAAAAAAAAAAAAAAAAAAAAAAAAAAAAAAAAAAAAAAAAAAAAAAAAAAAAAAAAAAAAAAAAAAAAAAAAAAAAAAAAAAAAAAAAAAAAAAAAAAAAAAAAAAAAAAAAAAAAAAAAAAAAAAAAAAAAAAAAAAAAAAAAAAAAAAAAAAAAAAAAAAAAAAAAAAAAAAAAAAAAAAAAAAAAAAAAAAAAAAAAAAAAAAAAAAAAAAAAAAAAAAAAAAAAAAAAAAAAAAAAAAAAAAAAAAAAAAAAAAAAAAAAAAAAAAAAAAAAAAAAAAAAAAAAAAAAAAAAAAAAAAAAAAAAAAAAAAAAAAAAAAAAAAAAAAAAAAAAAAAAAAAAAAAAAAAAAAAAAAAAAAAAAAAAAAAAAAAAAAAAAAAAAAAAAAAAAAAAAAAAAAAAAAAAAAAAAAAAAAAAAAAAAAAAAAAAAAAAAAAAAAAAAAAAAAAAAAAAAAAAAAAAAAAAAAAAAAAAAAAAAAAAAAAAAAAAAAAAAAAAAAAAAAAAAAAAAAAAAAAAAAAAAAAAAAAAAAAAAAAAAAAAAAAAAAAAAAAAAAAAAAAAAAAAAAAAAAAAAAAAAAAAAAAAAAAAAAAAAAAAAAAAAAAAAAAAAAAAAAAAAAAAAAAAAAAAAAAAAAAAAAAAAAAAAAAAAAAAAAAAAAAAAAAAAAAAAAAAAAAAAAAAAAAAAAAAAAAAAAAAAAAAAAAAAAAAAAAAAAAAAAAAAAAAAAAAAAAAAAAAAAAAAAAAAAAAAAAAAAAAAAAAAAAAAAAAAAAAAAAAAAAAAAAAAAAAAAAAAAAAAAAAAAAAAAAAAAAAAAAAAAAAAAAAAAAAAAAAAAAAAAAAAAAAAAAAAAAAAAAAAAAAAAAAAAAAAAAAAAAAAAAAAAAAAAAAAAAAAAAAAAAAAAAAAAAAAAAAAAAAAAAAAAAAAAAAAAAAAAAAAAAAAAAAAAAAAAAAAAAAAAAAAAAAAAAAAAAAAAAAAAAAAAAAAAAAAAAAAAAAAAAAAAAAAAAAAAAAAAAAAAAAAAAAAAAAAAAAAAAAAAAAAAAAAAAAAAAAAAAAAAAAAAAAAAAAAAAAAAAAAAAAAAAAAAAAAAAAAAAAAAAAAAAAAAAAAAAAAAAAAAAAAAAAAAAAAAAAAAAAAAAAAAAAAAAAAAAAAAAAAAAAAAAAAAAAAAAAAAAAAAAAAAAAAAAAAAAAAAAAAAAAAAAAAAAAAAAAAAAAAAAAAAAAAAAAAAAAAAAAAAAAAAAAAAAAAAAAAAAAAAAAAAAAAAAAAAAAAAAAAAAAAAAAAAAAAAAAAAAAAAAAAAAAAAAAAAAAAAAAAAAAAAAAAAAAAAAAAAAAAAAAAAAAAAAAAAAAAAAAAAAAAAAAAAAAAAAAAAAAAAAAAAAAAAAAAAAAAAAAAAAAAAAAAAAAAAAAAAAAAAAAAAAAAAAAAAAAAAAAAAAAAAAAAAAAAAAAAAAAAAAAAAAAAAAAAAAAAAAAAAAAAAAAAAAAAAAAAAAAAAAAAAAAAAAAAAAAAAAAAAAAAAAAAAAAAAAAAAAAAAAAAAAAAAAAAAAAAAAAAAAAAAAAAAAAAAAAAAAAAAAAAAAAAAAAAAAAAAAAAAAAAAAAAAAAAAAAAAAAAAAAAAAAAAAAAAAAAAAAAAAAAAAAAAAAAAAAAAAAAAAAAAAAAAAAAAAAAAAAAAAAAAAAAAAAAAAAAAAAAAAAAAAAAAAAAAAAAAAAAAAAAAAAAAAAAAAAAAAAAAAAAAAAAAAAAAAAAAAAAAAAAAAAAAAAAAAAAAAAAAAAAAAAAAAAAAAAAAAAAAAAAAAAAAAAAAAAAAAAAAAAAAAAAAAAAAAAAAAAAAAAAAAAAAAAAAAAAAAAAAAAAAAAAAAAAAAAAAAAAAAAAAAAAAAAAAAAAAAAAAAAAAAAAAAAAAAAAAAAAAAAAAAAAAAAAAAAAAAAAAAAAAAAAAAAAAAAAAAAAAAAAAAAAAAAAAAAAAAAAAAAAAAAAAAAAAAAAAAAAAAAAAAAAAAAAAAAAAAAAAAAAAAAAAAAAAAAAAAAAAAAAAAAAAAAAAAAAAAAAAAAAAAAAAAAAAAAAAAAAAAAAAAAAAAAAAAAAAAAAAAAAAAAAAAAAAAAAAAAAAAAAAAAAAAAAAAAAAAAAAAAAAAAAAAAAAAAAAAAAAAAAAAAAAAAAAAAAAAAAAAAAAAAAAAAAAAAAAAAAAAAAAAAAAAAAAAAAAAAAAAAAAAAAAAAAAAAAAAAAAAAAAAAAAAAAAAAAAAAAAAAAAAAAAAAAAAAAAAAAAAAAAAAAAAAAAAAAAAAAAAAAAAAAAAAAAAAAAAAAAAAAAAAAAAAAAAAAAAAAAAAAAAAAAAAAAAAAAAAAAAAAAAAAAAAAAAAAAAAAAAAAAAAAAAAAAAAAAAAAAAAAAAAAAAAAAAAAAAAAAAAAAAAAAAAAAAAAAAAAAAAAAAAAAAAAAAAAAAAAAAAAAAAAAAAAAAAAAAAAAAAAAAAAAAAAAAAAAAAAAAAAAAAAAAAAAAAAAAAAAAAAAAAAAAAAAAAAAAAAAAAAAAAAAAAAAAAAAAAAAAAAAAAAAAAAAAAAAAAAAAAAAAAAAAAAAAAAAAAAAAAAAAAAAAAAAAAAAAAAAAAAAAAAAAAAAAAAAAAAAAAAAAAAAAAAAAAAAAAAAAAAAAAAAAAAAAAAAAAAAAAAAAAAAAAAAAAAAAAAAAAAAAAAAAAAAAAAAAAAAAAAAAAAAAAAAAAAAAAAAAAAAAAAAAAAAAAAAAAAAAAAAAAAAAAAAAAAAAAAAAAAAAAAAAAAAAAAAAAAAAAAAAAAAAAAAAAAAAAAAAAAAAAAAAAAAAAAAAAAAAAAAAAAAAAAAAAAAAAAAAAAAAAAAAAAAAAAAAAAAAAAAAAAAAAAAAAAAAAAAAAAAAAAAAAAAAAAAAAAAAAAAAAAAAAAAAAAAAAAAAAAAAAAAAAAAAAAAAAAAAAAAAAAAAAAAAAAAAAAAAAAAAAAAAAAAAAAAAAAAAAAAAAAAAAAAAAAAAAAAAAAAAAAAAAAAAAAAAAAAAAAAAAAAAAAAAAAAAAAAAAAAAAAAAAAAAAAAAAAAAAAAAAAAAAAAAAAAAAAAAAAAAAAAAAAAAAAAAAAAAAAAAAAAAAAAAAAAAAAAAAAAAAAAAAAAAAAAAAAAAAAAAAAAAAAAAAAAAAAAAAAAAAAAAAAAAAAAAAAAAAAAAAAAAAAAAAAAAAAAAAAAAAAAAAAAAAAAAAAAAAAAAAAAAAAAAAAAAAAAAAAAAAAAAAAAAAAAAAAAAAAAAAAAAAAAAAAAAAAAAAAAAAAAAAAAAAAAAAAAAAAAAAAAAAAAAAAAAAAAAAAAAAAAAAAAAAAAAAAAAAAAAAAAAAAAAAAAAAAAAAAAAAAAAAAAAAAAAAAAAAAAAAAAAAAAAAAAAAAAAAAAAAAAAAAAAAAAAAAAAAAAAAAAAAAAAAAAAAAAAAAAAAAAAAAAAAAAAAAAAAAAAAAAAAAAAAAAAAAAAAAAAAAAAAAAAAAAAAAAAAAAAAAAAAAAAAAAAAAAAAAAAAAAAAAAAAAAAAAAAAAAAAAAAAAAAAAAAAAAAAAAAAAAAAAAAAAAAAAAAAAAAAAAAAAAAAAAAAAAAAAAAAAAAAAAAAAAAAAAAAAAAAAAAAAAAAAAAAAAAAAAAAAAAAAAAAAAAAAAAAAAAAAAAAAAAAAAAAAAAAAAAAAAAAAAAAAAAAAAAAAAAAAAAAAAAAAAAAAAAAAAAAAAAAAAAAAAAAAAAAAAAAAAAAAAAAAAAAAAAAAAAAAAAAAAAAAAAAAAAAAAAAAAAAAAAAAAAAAAAAAAAAAAAAAAAAAAAAAAAAAAAAAAAAAAAAAAAAAAAAAAAAAAAAAAAAAAAAAAAAAAAAAAAAAAAAAAAAAAAAAAAAAAAAAAAAAAAAAAAAAAAAAAAAAAAAAAAAAAAAAAAAAAAAAAAAAAAAAAAAAAAAAAAAAAAAAAAAAAAAAAAAAAAAAAAAAAAAAAAAAAAAAAAAAAAAAAAAAAAAAAAAAAAAAAAAAAAAAAAAAAAAAAAAAAAAAAAAAAAAAAAAAAAAAAAAAAAAAAAAAAAAAAAAAAAAAAAAAAAAAAAAAAAAAAAAAAAAAAAAAAAAAAAAAAAAAAAAAAAAAAAAAAAAAAAAAAAAAAAAAAAAAAAAAAAAAAAAAAAAAAAAAAAAAAAAAAAAAAAAAAAAAAAAAAAAAAAAAAAAAAAAAAAAAAAAAAAAAAAAAAAAAAAAAAAAAAAAAAAAAAAAAAAAAAAAAAAAAAAAAAAAAAAAAAAAAAAAAAAAAAAAAAAAAAAAAAAAAAAAAAAAAAAAAAAAAAAAAAAAAAAAAAAAAAAAAAAAAAAAAAAAAAAAAAAAAAAAAAAAAAAAAAAAAAAAAAAAAAAAAAAAAAAAAAAAAAAAAAAAAAAAAAAAAAAAAAAAAAAAAAAAAAAAAAAAAAAAAAAAAAAAAAAAAAAAAAAAAAAAAAAAAAAAAAAAAAAAAAAAAAAAAAAAAAAAAAAAAAAAAAAAAAAAAAAAAAAAAAAAAAAAAAAAAAAAAAAAAAAAAAAAAAAAAAAAAAAAAAAAAAAAAAAAAAAAAAAAAAAAPZYQJa606jMO0Ts1Im1+p0KegO9SglVunN7E7taajCPjpd2n176PlAcNtFJ0g/awwaHg1iRJ+zhum2a3Ll3bP3uF4I=</c2pa:manifest></metadata><title>VUNLEK</title><defs><style>.st0,.st3,.st5{fill:#fff}.st1,.st2,.st4{fill:#000}</style><mask id="m" maskUnits="userSpaceOnUse" x="7" y="80" width="1010" height="816">
  <g>
    <path class="st0" d="M772.07,520.4c7.9-117.91-50.84-224.91-158.7-273.11-129.83-58.01-280.05,6.12-337.88,135.1-19.5,43.49-26.45,89.8-22.7,138.42-29.89-40.99-72.56-66.1-122.34-76.19l18.97-61.02L242.63,88.84c89.39-3.78,182.66,13.06,246.49,79.11,8.28,9.86,15.72,18.35,22.97,30.38,15.97-25.53,36.58-45.33,61.57-61.81,61.36-39.99,135.45-50.28,207.39-47.91l113.25,356.31c-48.91,9.41-91.94,33.22-122.22,75.48Z"/>
    <g>
      <path class="st0" d="M836.77,523.86c-19.78,4.81-36.57,13.23-55.66,20.61,10.58-10.49,22.25-17.76,35.11-24.98,51.38-23.8,100.71-28.94,156.9-21.92l-121.7-355.63,23.45-.49,116.76,332.57,17.2,51.55-66.26-10.39c-35.91-3.09-70.98.2-105.8,8.67Z"/>
      <path class="st0" d="M241.3,542.84l-36.98-14.09c-43.67-14.16-89.3-19.22-134.78-12l-54.37,8.63L149.1,141.7l23.82-.13L51.19,498.25c47.23-7.03,93.01-4.02,136.68,13.03,19.85,7.75,37.78,16.64,53.43,31.57Z"/>
      <path class="st0" d="M833.02,500.03c-19.87,7.55-35.26,17.64-52.34,30.14,5.54-10.62,13.36-18.03,22.12-25.8,30.7-27.25,69.24-42.37,111.42-45.72l-38.6-124.97-69.18-218.7,22.26-.43,63.75,189.44,60.2,177.73c-41.25-2.35-80.91,3.54-119.63,18.31Z"/>
      <path class="st0" d="M242.88,528.19c-25.16-15.21-48.64-30.01-77.29-36.35-30.4-9.14-61.02-11.7-93.66-10.09L195.06,115.04l22.26.02-107.93,343.43c51.64,4.13,101.67,26.25,133.49,69.7Z"/>
    </g>
  </g>
  <g>
    <path class="st0" d="M519.69,837.79c.87-18.48-2.38-32.7-9.76-42.64-1.85-32.88-1.14-65.2,2.1-96.96,18.35-6.82,39.07-8.48,62.15-4.97l21.43-13.94c-4.14-28.68-3.25-56.47,2.68-83.38-4.3-11.02-5.55-23.02-3.75-36.01,4.15-13.57-3.11-25.22-21.77-34.93-11.89,1.98-50.22,5.83-58.15-1.24-5.89-5.25-6.82-67.45-4.84-78.52l8.2-5.95,1.06-51.7c26.99-5.42,38.11-28.98,56.09-43.29,19.3-7.7,49.92,7.75,65.21,20.86-7.34,32.98,10.34,64.38,42.83,68.59,12.45,1.61,24.72-7.89,37.42-10.94,16.91,15.54,32.08,31.23,39.34,52.72-19.23,24.97-26.22,57.16-10.41,83.47,7.99,13.3,26.42,15.27,41.74,18.97,5.82,23.42,4.7,48.25.91,71.49l-40.38,16.38c-18.49,29.01-12.29,62.93,11.26,87.98l-39.02,51.47c-13.24-3.19-25.98-11.4-41.38-8.65-26.41,4.71-50.25,33.06-42.19,70.03-17.88,9.85-40.65,24.81-63.38,20.54-20.34-29.93-43.6-31.59-57.4-49.39Z"/>
    <path class="st0" d="M499.83,380.62l1.25,63.91c3.45.44,6.42,1.2,7.71,3.1,2.08,3.07-.28,69.41-3.46,73.45-7.61,9.67-47.28,7.19-59.2,1.73-20.95,10.29-28.21,30.84-21.8,61.64-2.7,9.73-2.34,20.5,1.08,32.31.49,21.39-.36,42.64-2.56,63.75l22.45,15.56c10.13-5.04,51.63-6.96,58.88-.39,5.4,4.89,5.95,96.62,2.98,100.77-1.31,1.82-4.3,2.44-7.76,2.72,0,0-.79,13.48-2.37,40.44-13.45,18.15-33.96,30.93-53.51,31.44-51.06,1.34-66.91-44.17-87.91-47.95-41.28-7.42-65.31-36.1-72.67-77l-21.17-37.68c-4.96-64.25-41.03-98.84,1.86-154.57,26.42-34.33,1.95-62.89,36.26-98.85,15.25-15.99,28.72-38.35,50.12-46.49,18.88-7.18,31.36-15.33,44.53-30.16,28.55-32.14,76.74-32.19,105.29,2.26Z"/>
    <path class="st2" d="M519.05,387.55l.06,130.29,47.54.2c-1.29-21.64,4.39-42.73-2.22-63.67-2.72-8.61-13.77-15.64-9.91-25.96,3.5-9.34,10.7-15.57,19.82-15.58,11.39,0,17.64,7.93,20.57,15.7,5.1,13.54-8.66,20.22-16.83,25.69-5.04,21.07-1.44,41.69-1.6,62.96,24.84,12.12,25,30.8,43.91,28.85,11.81-1.22,19.16-8.18,21.68-16.52,4.23-14-2.52-19.78-10.95-28.99-8.9-9.72,1.59-24.14,9.71-27.08,12.94-4.69,22.38.73,27.71,10.45,9.12,16.65-8.73,20.92-13.68,31.1-5.86,12.05-1.23,26.46-13.97,33.68-10.34,5.86-21.09,8.98-36.95,5.36l-.51,36.39c19.73.01,42.97,6.66,63.81-2.25,6.91-2.96,10.93-18.34,23.41-15.57,9.44,2.09,18.37,5.82,20.23,17.96,1.51,9.8-3.77,18.2-13.12,22.99-11.97,6.14-19.69-4.98-30.39-9.35-19.19-7.84-42.39-1.04-62.76-3.18-2.86,12.67-2.37,21.63-.26,34.04l49.63.72c10.87,16.71,27.56,24.08,43.97,38.52-20.98,3.38-36.1-13.34-48.21-28.71l-45.62-.6c-1.6,9.88-1.73,19.38.64,29.8,15.01-1.28,25.17,1.37,35.39,9.51,8.93,7.11,5.96,24.75,13.29,34.97s17.37,17.04,14.44,28.47c-3.39,13.23-14.23,17.64-24.4,16.43-13.71-1.63-22.69-18.93-13.83-30.14,8.6-10.89,14.06-18.64,10.44-31.62-3.44-12.31-15.01-20.95-31.87-17.64-9.1,1.79-26.43,11.16-31.12,19.56-1.75,24.02-3.83,48.09,1.49,70.58,7.29,5.21,16.48,12.16,16.5,20.08.03,11.09-6.37,18.88-16.63,20.72-10.91,1.95-18.27-4-23.35-13.25-6.12-11.13,6.3-17.24,9.21-26.16,7.89-24.25,1.25-49.99,1.67-74.52l-47.75-.25,1.49,136.22c-11.51-14.85,7.28-45.33-18.91-39.46,3.43,13.67,4.93,29.57-3.75,41.28l2.69-138.1-48.37-.12c1.57,24.28-4.34,49.98,2.78,75.06,2.75,9.68,14.06,18.4,5.66,31.21-4.24,6.47-12.61,10.25-23.91,7.82-9.85-2.12-15.45-12.63-14.72-24.73.43-7.14,15.66-11.4,17.88-18.05,7.25-21.72.64-45.79,2.45-68.51l-27.94-18.7c-11.53-7.72-28.16.16-33.93,9.61-16.39,26.83,27.29,48.53-.3,65.42-13.4,8.21-26.06.02-30.09-8.47-8.21-17.29,7.53-21.79,14.74-32.77,6.8-10.33-.62-29.4,15.56-37.65,8.7-4.44,21.16-11.1,36.16-6.61,1.46-11.64,1.86-18.4-.48-28.82-13.9.25-37.38-6.38-48.71,5.48-18.1,18.93-42.65,37.62-67.76,16.63,32.41-.04,52.41-7.19,65.99-31.86l49.21-.99c2.93-12.6,3.14-21.73-.55-34.04-21.97,1.94-45.83-4.69-65.93,3-9.32,6.17-16.65,14.6-27.27,9.79-10.47-4.75-15.7-13.37-13.68-23.76,2.19-11.27,11.31-16.11,21.15-17.97,11.08-2.09,15.15,9.62,21.59,14.81,19.95,9.82,45.13,3.34,65.79,3.08l-.04-35.83c-17.34,3.66-29.52,3.25-41.47-7.08-7.24-6.26-6.45-20.81-13.31-31.67-5.42-8.58-16.68-13.7-15.14-23.6,1.82-11.64,9.42-18.08,16.85-19.8,13.04-3.02,20.93,5.12,23.66,12.08,5.53,14.09-3.4,19.11-10.59,27.89-7.6,9.28,3.01,23.83,9.35,29.26,7.28,6.24,27.6,9.14,31.68-1.56,4.62-12.12,14.48-18.8,22.38-24.49,5.54-18.15,4.87-44.69-.71-62.34-8.59-6.19-18.79-11.57-15.23-25.19,1.9-7.28,8.29-15.26,20.62-15.13,7.88.08,16.18,5.54,19.81,16.03,2.76,7.97-5.39,14.36-8.88,22.93-8.31,20.4-1.44,43.56-2.58,65.8l47.7-.03.67-136.99,2.81,63.96c3.91-2.79,6.4-5.6,14.38-2.63-.6-18.24-4.31-37.44,2.03-54.41Z"/>
    <circle class="st0" cx="649.69" cy="492.3" r="11.91"/>
    <circle class="st0" cx="328.12" cy="593.98" r="12.25"/>
    <circle class="st0" cx="647.42" cy="743.62" r="11.49"/>
    <circle class="st0" cx="690.21" cy="594.2" r="12.11"/>
    <circle class="st0" cx="366.88" cy="491.52" r="11.96"/>
    <circle class="st0" cx="574.73" cy="433.18" r="11.29"/>
    <circle class="st0" cx="573.85" cy="796.53" r="11.76"/>
    <circle class="st0" cx="443.24" cy="433.06" r="11.21"/>
    <circle class="st0" cx="368.24" cy="743.26" r="11.17"/>
    <circle class="st0" cx="441.03" cy="795.94" r="11.77"/>
    <path class="st0" d="M592.67,664.8c.05,14.72-8.36,25.06-20.93,25.05l-129.93-.02c-4.24,0-15.04-3.95-15.03-9.65l.25-149.17,144.96-.47c12.23-.04,20.58,7.57,20.34,20.07l.35,114.19Z"/>
    <rect class="st1" x="509.36" y="604.55" width="78.15" height="14.4" transform="translate(-64.6444 1158.6851) rotate(-89.86)"/>
    <path class="st4" d="M510.31,635.76c-4.96-8.61-27.79-6.19-34.77-1.12-5.18,3.76-5.17,8.94-6.75,11.47-2.76,4.42-11.19,6.53-17.28.91l33.75-71.78c2.74-5.83,14.66-2.91,17.08,3.31l26.81,68.81c.41,2.06-9.75,4.18-10.73,2.47l-8.11-14.07Z"/>
    <path class="st3" d="M505.23,619.66l-25.32-.22,13.11-29.66c7.29,10.1,7.41,17.53,12.2,29.88Z"/>
  </g>
</mask></defs><rect x="7" y="80" width="1010" height="816" fill="#42428F" mask="url(#m)"/></svg>